<svg width="326" height="270" viewBox="0 0 326 270" fill="none" xmlns="http://www.w3.org/2000/svg">
<path fill-rule="evenodd" clip-rule="evenodd" d="M22.397 116.233C109.853 78.13 168.171 53.01 197.35 40.8733C280.664 6.22045 297.975 0.200889 309.259 0.00211933C311.741 -0.0415979 317.289 0.573444 320.884 3.49002C323.919 5.95272 324.754 9.27948 325.154 11.6144C325.553 13.9493 326.051 19.2683 325.655 23.4244C321.14 70.8615 301.605 185.979 291.667 239.109C287.461 261.591 279.181 269.128 271.164 269.866C253.743 271.469 240.514 258.353 223.64 247.292C197.236 229.984 182.32 219.209 156.69 202.32C127.071 182.801 146.272 172.073 163.152 154.541C167.569 149.953 244.329 80.1339 245.815 73.8002C246.001 73.0081 246.173 70.0554 244.419 68.4962C242.665 66.9371 240.076 67.4703 238.207 67.8943C235.559 68.4954 193.379 96.3752 111.666 151.534C99.6929 159.755 88.8483 163.761 79.1319 163.551C68.4204 163.32 47.8156 157.495 32.4982 152.515C13.7106 146.408 -1.22131 143.179 0.0789281 132.808C0.756172 127.406 8.19554 121.881 22.397 116.233Z" fill="white"/>
</svg>
