<svg width="400" height="238" viewBox="0 0 400 238" fill="none" xmlns="http://www.w3.org/2000/svg">
<path fill-rule="evenodd" clip-rule="evenodd" d="M58.75 0H15C2.5 0 0 5.875 0 12.375C0 23.9625 14.825 81.4375 69.0625 157.45C105.212 209.363 156.15 237.5 202.5 237.5C230.313 237.5 233.75 231.25 233.75 220.487V181.25C233.75 168.75 236.375 166.25 245.188 166.25C251.688 166.25 262.812 169.5 288.762 194.525C318.425 224.188 323.313 237.5 340 237.5H383.75C396.25 237.5 402.5 231.25 398.887 218.913C394.95 206.625 380.787 188.788 361.987 167.65C351.787 155.6 336.487 142.612 331.862 136.125C325.362 127.787 327.237 124.075 331.862 116.663C331.862 116.663 385.162 41.575 390.737 16.0875C393.512 6.81251 390.738 0 377.488 0H333.75C322.625 0 317.5 5.875 314.725 12.375C314.725 12.375 292.475 66.6 260.962 101.825C250.762 112.025 246.125 115.275 240.562 115.275C237.787 115.275 233.763 112.025 233.763 102.763V16.0875C233.763 4.96251 230.525 0 221.263 0H152.512C145.562 0 141.387 5.1625 141.387 10.0625C141.387 20.6 157.137 23.0375 158.762 52.6875V117.125C158.762 131.25 156.212 133.812 150.637 133.812C135.812 133.812 99.7375 79.3375 78.3375 17.0125C74.1375 4.875 69.925 0 58.75 0Z" fill="white"/>
</svg>
